Patient4_TMGait_0pt2_01_right_15_EMG.mot
version=1
nRows=29
nColumns=33
inDegrees=no
endheader
time	1LAddLong	2LGlutMax	3LGlutMed	4LIliopsoas	5LSemiMemb	6LBicFemLong	7LRecFem	8LVastMed	9LVastLat	10LGasMed	11LTibAnt	12lTibPost	13LPeroneusLong	14LSol	15LExtDigLong	16LFlexDigLong	17RAddLong	18RGlutMax	19RGlutMed	20RIliopsoas	21RSemiMemb	22RBicFemLong	23RRecFem	24RVastMed	25RVastLat	26RGasMed	27RTibAnt	28RTibPost	29RPeroneusLong	30RSol	31RExtDigLong	32RFlexDigLong
35.57	0.019531	0.26382	-0.019684	0.003662	0.078888	0.55374	-0.091553	0.00412	0.17716	-0.036316	-0.004578	0.001221	0.15442	0.25528	-0.10208	-0.001984	0.013733	-0.088654	-0.6427	0.12619	-0.053711	-0.052795	0.21851	0.033112	0.028534	0.002594	-0.13977	-0.005951	-0.16724	-0.069275	-0.006256	-0.007477
35.571	0.013275	0.27405	-0.1648	0.018463	0.050964	0.42999	-0.087585	0.003967	-0.045319	0.05127	0.010681	-0.000916	-0.35019	0.22064	-0.12909	-0.008545	0.027924	-0.084381	-0.65308	0.13184	-0.047302	-0.018158	0.24414	0.096741	0.067139	0.001831	-0.30212	-0.007629	-0.51239	-0.13214	-0.002289	0.002289
35.572	0.009613	0.29785	-0.2092	0.022736	-0.027771	0.052948	-0.009766	-0.026245	-0.29175	0.06134	-0.006104	0.013428	0.063171	-0.21194	-0.17456	-0.004578	0.056458	-0.065308	0.039063	-0.091248	-0.033875	0.016479	0.11536	0.06546	0.09201	0.002594	-0.17059	-0.006561	-0.20493	-0.096588	0.002899	-0.005646
35.573	0.017242	0.25803	-0.12817	0.03006	-0.044098	-0.25406	0.010834	-0.007172	-0.60272	0.046844	-0.021515	0.00412	0.54794	-0.39551	-0.037842	-0.000916	0.058899	-0.073853	-0.20508	-0.21484	-0.02594	0.037079	-0.014038	0.037994	0.090179	0.006561	-0.27496	-0.005341	-0.13992	-0.061035	-0.001526	0.00351
35.574	0.014496	0.25894	0.16083	0.007019	0.003204	-0.41901	-0.015869	-0.002899	-0.66071	0.034332	-0.029144	0.009308	0.177	-0.18051	0.015411	0.009766	0.11307	0.027008	-0.27695	-0.32898	-0.011597	0.025787	-0.016174	0.072632	0.066528	0.01236	-0.049744	-0.010529	-0.14389	0.022125	-0.001831	0.007172
35.575	0.017242	0.16174	0.30518	0.024261	0.045471	-0.35339	-0.14038	0.010529	-0.25726	0.015259	-0.005035	0.00885	-0.5513	-0.16464	0.021057	-0.001068	0.12512	0.042419	-0.46997	-0.33829	-0.002136	0.035095	-0.045319	0.14038	0.065765	0.008087	-0.085449	-0.009766	-0.019379	0.08194	-0.00061	0.000916
35.576	0.001373	0.076294	0.14053	0	0.036621	-0.15045	-0.17624	0.000305	0.007172	-0.003815	-0.02121	0.009766	-0.20676	-0.32089	-0.083923	-0.015564	0.078278	-0.001221	-0.18249	-0.28442	0.012665	0.019684	-0.003967	0.13641	0.050507	0.007935	0.11261	-0.002594	0.1445	0.084381	-0.001984	-0.001526
35.577	0.002136	0.017395	0.091705	0.020905	0.00473	0.20569	-0.13001	0.00061	-0.039673	-0.007782	-0.036011	0.011139	0.035248	-0.12268	0.052643	0.007172	0.029449	-0.054626	0.015564	-0.22156	0.009155	-0.014038	-0.039825	0.074158	0.042267	0.00061	0.058594	-0.004272	0.068512	0.12085	-0.003662	-0.007782
35.578	0.006256	-0.047455	0.095978	0.014954	-0.036316	0.44907	-0.11688	-0.008087	-0.10376	0.000153	-0.015259	0.001068	-0.10178	-0.24048	0.15778	-0.006561	-0.010376	-0.016937	-0.177	-0.21805	-0.015259	-0.047302	-0.042267	0.036774	0.013275	-0.005493	-0.16205	-0.010834	-0.007172	0.069427	-0.00061	-0.018311
35.579	0.011597	-0.042725	0.0177	0.009155	-0.035706	0.49194	-0.088348	-0.010071	0.022888	0.032654	0.028687	0.007782	0.008087	-0.21622	0.11749	-0.010071	-0.019073	0.016174	0.11261	-0.10757	-0.028992	-0.067902	0.023651	-0.015411	-0.020142	-0.009155	0.053253	-0.011749	-0.039215	-0.033112	-0.006561	-0.014801
35.58	0.000763	-0.016327	-0.030365	-0.017395	-0.030365	0.28839	0.011902	0.015106	0.035248	0.058289	0.0383	0.00885	-0.21835	-0.025635	0.099335	-0.011292	-0.039673	0.055847	-0.076752	0.10773	-0.035095	-0.08606	-0.038605	-0.016022	-0.016479	-0.002136	0.16953	-0.004578	0.06012	-0.065308	-0.007324	-0.005035
35.581	0.007019	-0.003052	0.063477	-0.025635	0.003357	0.14908	-0.025635	0.010834	-0.027466	0.030212	-0.001373	0.003967	-0.031891	0.21912	0.038605	0.002441	-0.062561	0.085297	-0.34302	0.30823	-0.039063	-0.093231	-0.019531	0.035553	-0.001068	0.004272	-0.15656	-0.007019	0.085297	-0.067596	-0.008698	-0.005493
35.582	0.006714	0.00351	0.058136	-0.018158	0.012817	0.072327	-0.078583	-0.010071	-0.088959	-0.00824	0.002899	0.009155	-0.19379	0.36468	-0.057068	-0.010529	-0.044708	0.043945	0.21118	0.24674	-0.035095	-0.067139	-0.034485	-0.007019	0.033569	-0.00351	-0.22903	-0.004272	0.016632	0.032654	-0.004425	0.002136
35.583	0.009308	0.000153	-0.024414	-0.011597	0.05127	-0.23727	-0.11231	-0.016022	-0.088043	0.027313	0.015106	0.000458	0.90317	0.18112	0.026855	0.00351	0.010223	-0.011597	-0.27725	0.2623	-0.027466	-0.083618	0.052643	0.016785	0.033569	-0.002441	-0.13931	-0.007172	-0.03479	0.063629	-0.005798	0.005646
35.584	0.00885	0.004425	-0.013428	-0.016479	0.047302	-0.4892	-0.060577	-0.019379	-0.054321	0.050812	0.025024	0.004425	0.2388	-0.1239	-0.011902	-0.007477	0.032196	-0.022278	-0.8139	0.19562	-0.03418	-0.067139	0.086975	0.014648	0.031281	-0.005798	-0.004883	-0.002594	-0.1033	0.025177	-0.002441	-0.000153
35.585	0.007324	0.004425	-0.079803	0.00473	0.043488	-0.63614	0.037994	-0.002289	-0.018921	0.2269	-0.006104	0.005798	0.098572	0.045013	-0.015259	-0.001526	0.072632	-0.046539	-0.58426	0.095825	-0.036469	-0.063782	0.14343	0.003662	0.024719	-0.002289	-0.12085	-0.005035	-0.16373	0.015717	-0.001831	-0.000916
35.586	0.010529	0.023651	-0.15915	0.031738	0.016479	-0.63736	0.10117	0.003967	0.048981	0.10284	-0.008087	0.007477	-0.3714	0.23666	0.069427	0.000916	0.067749	0.001526	-0.35065	0.091858	-0.018616	-0.056305	0.049286	-0.03067	0.029602	0.000458	-0.21393	-0.010834	-0.072784	-0.039368	-0.003052	-0.001373
35.587	0.003815	0.013123	-0.23926	0.015717	0.005493	-0.51407	0.13825	0.011597	0.063324	-0.046387	0.034943	0.008392	-0.52841	0.10574	0.056305	-0.010071	0.027466	0.019226	-0.44617	0.067139	-0.017395	-0.035095	-0.031891	-0.042877	0.021667	0.008392	-0.025787	-0.014648	-0.036316	-0.17075	-0.002136	-0.007935
35.588	0.009155	0.080261	-0.11047	0.028076	0.002899	-0.24033	0.11032	0.025482	0.039978	0.022736	0.025024	-0.000153	-0.026703	-0.083008	0.040283	0.00412	-0.015564	-0.002899	-0.41458	0.025177	-0.02121	-0.032196	-0.014496	-0.035248	0.036011	0.001373	0.10635	-0.007324	-0.058746	-0.16907	-0.006409	-0.00061
35.589	0.015411	0.12619	-0.061951	0.018463	0.02655	-0.16266	0.073547	0.033264	0.015869	0.24399	0.016327	-0.000153	0.55054	-0.057831	0.013123	0.001221	-0.061035	0.02121	-0.30045	-0.079346	-0.023041	-0.031128	-0.012207	0.010529	0.026093	0.007172	0.37521	-0.008698	-0.092316	-0.14542	-0.005493	0.007477
35.59	0.010834	0.094757	-0.075378	0.046692	0.028381	-0.13504	0.068207	0.040588	0.03006	-0.031128	0.022278	-0.010071	0.40192	-0.095062	-0.035095	0.002747	-0.091858	0.014191	-0.17288	-0.22964	-0.00061	-0.026245	-0.053711	0.000458	0.045471	0.005188	0.76248	-0.006409	-0.04364	-0.1329	0.001831	-0.001221
35.591	0.022125	0.15091	-0.053864	0.038605	0.035095	-0.10208	0.010376	0.024567	0.080261	-0.26062	-0.039978	-0.010834	-0.12116	-0.18829	0.038605	-0.003662	-0.11124	0.042114	-0.16556	-0.20371	-0.005951	-0.028229	-0.045471	0.028534	0.025787	0.004425	0.97107	-0.009613	0.067902	-0.15686	-0.00061	-0.001831
35.592	0.009918	0.13336	0.066071	-0.012512	0.019989	-0.07019	-0.004425	0.000916	0.080261	0.087433	-0.031128	0	-1.5283	-0.092163	0.065918	-0.000458	-0.12741	0.060883	-0.34531	-0.044861	-0.003357	-0.031433	-0.038452	0.017395	0.013733	0.006104	0.69931	-0.004425	-0.066376	-0.089569	-0.001831	-0.000153
35.593	0.013275	0.037689	-0.19486	-0.003204	-0.009613	-0.014954	-0.066986	0.00946	0.15869	0.11734	-0.02655	0.016327	-0.089417	-0.14603	-0.028076	-0.005493	-0.099487	0.078583	-0.22522	0.12573	0.01709	-0.028534	-0.010681	0.034332	0.014343	0.009613	-0.26581	-0.005188	-0.25284	-0.073547	-0.00351	-0.007629
35.594	0.002899	0.087891	-0.005646	-0.018616	-0.007935	-0.001526	-0.11459	-0.007172	0.1178	-0.12344	-0.01709	0.018921	0.26428	-0.022583	-0.020599	-0.012512	-0.082703	0.14679	-0.46417	0.059662	0.014191	-0.006256	-0.00824	0.077667	0.022125	0.007782	-0.53619	-0.00946	-0.19806	-0.11078	-0.001678	-0.006714
35.595	-0.001373	0.08728	0.029297	0.003662	0.007782	0.023956	-0.014496	-0.027618	0.095062	-0.088501	0.006256	0.013275	0.11261	0.16815	-0.04715	-0.008087	-0.048218	0.13504	-0.3363	0.050201	0.040894	0.019684	-0.050049	0.023041	0.054016	0.002747	-0.3952	-0.006256	-0.32944	-0.09964	-0.002899	-0.012512
35.596	-0.012207	0.02655	0.14313	0.009003	-0.001526	0.056305	-0.008698	-0.036011	0.11246	-0.066833	-0.00061	0.023499	0.44479	0.30533	0.032806	-0.005493	-0.012665	0.069733	-0.36224	0.077667	0.050659	0.045624	-0.12817	0.006409	0.051422	0.001984	-0.19775	-0.000458	-0.1973	-0.057983	-0.001984	-0.014038
35.597	-0.014801	0.041046	0.11017	0.005493	-0.011444	0.043335	0.028687	-0.032959	0.10788	-0.019226	0.002899	0.009918	0.092163	0.30548	0.009613	-0.007477	-0.003662	-0.016937	-0.014191	0.11032	0.046997	0.039368	-0.13672	0.046539	0.046539	0.016785	-0.67551	-0.001221	0.006866	-0.11581	-0.002441	0.000916
35.598	-0.019379	0.079803	0.043182	-0.001984	0.000763	0.061188	0.057068	-0.016327	-0.00946	0.022888	-0.010223	0.002747	-0.15274	-0.19486	-0.054321	-0.0177	-0.030823	0.007324	-0.005798	-0.021515	0.042725	0.039673	-0.19379	0.023499	0.071106	0.01709	-0.63034	-0.007629	-0.047455	-0.23987	-0.006866	-0.001373
